<?xml version="1.0" encoding="utf-8"?>
<!-- Generator: Adobe Illustrator 25.3.1, SVG Export Plug-In . SVG Version: 6.00 Build 0)  -->
<svg version="1.1" id="Layer_1" xmlns="http://www.w3.org/2000/svg" xmlns:xlink="http://www.w3.org/1999/xlink" x="0px" y="0px"
	 viewBox="0 0 256 151" style="enable-background:new 0 0 256 151;" xml:space="preserve">
<style type="text/css">
	.st0{fill:none;stroke:#000000;stroke-width:6;stroke-linecap:round;stroke-miterlimit:10;}
	.st1{font-family:'HarmonyOS_Sans_SC_Black';}
	.st2{font-size:27.6412px;}
	.st3{letter-spacing:5;}
	.st4{font-family:'HarmonyOS_Sans_SC';}
</style>
<g>
	<g>
		<g>
			<path d="M35.5,58.2c-5-1.9-7-2.9-10.5-4.5c0.3-1.5,0.5-2.3,0.8-3.8c0.4-1.8,0.5-3,0.4-3.6s-0.4-1-0.8-1.3
				c-0.5-0.3-0.9-0.1-1.3,0.4c-0.4,0.5-0.7,1.5-1.1,2.8c-0.4,1.7-0.6,3.1-0.5,4.1c0.1,1,0.6,2.4,1.9,4.3c3.6,5.3,7.2,9.4,8.6,12
				s1.8,6.2,1.3,10.9c-0.4,3.4-1.1,5.8-2.1,7.3c-1,1.5-2.6,2.8-4.6,3.8s-3.9,1.7-5.9,1.6c-2.2-0.1-3.9-1-5.6-2.9
				c-1.7-1.9-3-4.3-3.9-7s-1.6-6.4-1.4-10.8c0.1-1.5,0.1-2.3,0.3-3.7c2.6,0.6,4.1,1.1,7.7,2.2c-0.3,2.6-0.4,4-0.5,6.7
				c0,2.1,0.1,3.5,0.4,4.2c0.3,0.7,0.7,1.1,1.4,1.2c0.7,0.1,1.2-0.2,1.5-0.8c0.3-0.7,0.5-1.8,0.6-3.2c0.1-3.2,0-5.3-0.6-6.5
				c-0.6-1.2-2.1-3.3-4-6.3c-1.9-3-2.6-5.1-3-6.3c-0.3-1.2-0.4-2.7-0.2-4.6c0.2-1.9,0.8-4.2,1.7-7c1.3-4,2.5-7,3.4-8.8
				c0.9-1.8,1.9-3.2,3.1-3.8s2.4-0.4,4.1,0.8c1.9,1.3,3.7,3.2,5.4,5.5c1.7,2.2,2.9,4.3,3.5,6.3c0.5,2,0.6,4.8,0.1,8.6
				C35.6,57.1,35.6,57.4,35.5,58.2z"/>
		</g>
		<g>
			<path d="M63.2,50.2c0.7,14.7,1.3,29.4,2,44c-5.8-0.2-8.6-0.4-14-0.6c0.3-7.5,0.5-11.2,0.8-18.7c-1.5-0.2-2.2-0.3-3.6-0.5
				C48,82,47.7,85.8,47.3,93.5c-5.1-0.2-7.5-0.3-11.9-0.5c1.9-16.2,3.7-32.4,5.6-48.6c3.2,1.5,4.9,2.2,9.1,3.6
				c-0.4,6.5-0.6,9.8-1,16.3c1.3,0.3,2,0.4,3.4,0.7c0.3-6.4,0.4-9.6,0.7-16C57.6,50.4,59.5,50.5,63.2,50.2z"/>
		</g>
		<g>
			<path d="M92.4,71c0.6,5.6,1,9.6,1,12c0,2.4-0.4,4.5-1.3,6.5s-2.3,3.3-4.2,4.2c-1.9,0.9-4.1,1.3-6.7,1.2c-2.4-0.1-4.6-0.6-6.6-1.4
				c-1.9-0.8-3.5-2-4.7-3.6c-1.2-1.5-1.9-3.2-2.2-4.9c-0.3-1.8-0.5-4.8-0.7-9.2c-0.1-2.9-0.2-4.4-0.3-7.3c-0.2-4.3-0.2-7.3-0.1-9.2
				c0.1-1.8,0.7-3.6,1.6-5.3c1-1.8,2.3-3.4,3.9-4.9s3.4-3,5.5-4.3c2-1.3,3.8-2.1,5.4-2.2c1.7-0.2,3.1,0.4,4.3,1.7
				c1.2,1.3,2,3.1,2.5,5.3c0.4,2.2,1,6.2,1.6,12C91.8,65.2,92,67.2,92.4,71z M80.1,57.4c-0.2-2.3-0.4-3.7-0.6-4.2
				c-0.2-0.5-0.7-0.6-1.3-0.3c-0.5,0.3-0.9,0.7-1.2,1.3c-0.2,0.6-0.3,2.2-0.1,4.6c0.6,8.8,0.9,13.2,1.5,22c0.2,2.7,0.4,4.4,0.7,5.1
				c0.3,0.6,0.8,0.9,1.5,0.9c0.8,0,1.3-0.4,1.4-1.2c0.2-0.8,0.1-2.6-0.1-5.5C81.2,70.9,80.9,66.4,80.1,57.4z"/>
		</g>
		<g>
			<path d="M91.1,35.3c9.4-4.8,20.2-10.2,30.9-5.4c-0.4,5.3-0.6,8-1.1,13.3c-3.3-1.6-4.9-2-10.6-1.4c-0.1,5.1-0.2,7.7-0.3,12.8
				c4.7-0.3,6.3-0.1,9.3,1c-0.4,5.1-0.6,7.6-1,12.7c-3-0.8-4.5-1-8.6-0.8c-0.1,6-0.2,8.9-0.3,14.9c4,0,5.7,0.1,9,0.7
				c-0.4,5.3-0.7,7.9-1.1,13.2c-7.7-0.3-11.7-0.4-19.6-0.8C95.6,75.5,93.4,55.4,91.1,35.3z"/>
		</g>
		<g>
			<path d="M147.3,51.9c0.8,15.2,1.6,30.4,2.5,45.6c-3.1-0.1-4.7-0.2-7.9-0.3c-0.3-11.3-0.5-22.6-0.8-33.8
				c-0.8,11.2-1.7,22.5-2.5,33.7c-2.4-0.1-3.6-0.1-6-0.2c-1.3-13.1-2.2-26.2-2.8-39.3c-0.3,13.1-0.5,26.1-0.8,39.2
				c-3.5-0.1-5.3-0.2-8.8-0.3c1.8-21.3,3.5-42.6,5.3-63.9c2.6,2.4,3.8,4,7.5,7.7c0.3,3.7,0.6,7.9,1,12.7c0.5,6,0.8,9,1.3,14.8
				c0.7-9.9,1-14.6,1.7-23.8C141.6,48,143.5,49.5,147.3,51.9z"/>
		</g>
		<g>
			<path d="M168.7,60c2.6,12.6,4.6,25.4,4.9,38.3c-2.8-0.1-4.3-0.1-7.7-0.2c-0.4-2.8-0.5-4.3-0.9-7.1c-1.2-0.1-1.9-0.2-3.1-0.3
				c0,2.9,0,4.3,0.1,7.3c-3.6-0.1-5.5-0.2-9.5-0.3c0.7-14,1.3-28,1.6-42C158.7,57.6,161.2,58.3,168.7,60z M164.3,83.9
				c-0.8-4.5-1.7-10.2-2.7-17c-0.4,7.4-0.5,13-0.4,16.5C162.4,83.6,163,83.7,164.3,83.9z"/>
		</g>
		<g>
			<path d="M179.5,62.1c2.5,0.5,3.8,0.7,6.7,1.2c4.8,0.9,8.6,1.7,10.6,2.4c2,0.7,3.8,1.7,5.2,3.2s2.3,3.4,2.4,6
				c0.1,2.4-0.3,3.9-1.4,4.7c-1,0.8-3.1,1.2-5.9,1.2c2.6,0.5,4.5,1.2,5.5,1.9c1,0.7,1.6,1.3,1.9,1.9s0.5,2.1,0.6,4.5
				c0.2,3.2,0.2,4.9,0.4,8.1c-5.8,0.5-8.6,0.7-13.2,1c0-4.5,0.1-6.7,0.1-11.2c0-1.8-0.2-2.9-0.5-3.4c-0.4-0.4-1.4-0.7-2.9-0.8
				c-0.1,6.2-0.2,9.3-0.3,15.5c-4.4,0.2-5.1,0.1-12.4,0C177.3,86.2,178.4,74.2,179.5,62.1z M189.1,69.8c-0.1,3.1-0.1,4.6-0.1,7.7
				c1.2,0.1,2.1,0,2.6-0.2c0.5-0.2,0.8-1.1,0.8-2.6c0-0.7,0-1.1,0-1.8c0-1.1-0.2-1.8-0.7-2.2S190.3,70,189.1,69.8z"/>
		</g>
		<g>
			<path d="M241.9,78.2c1.7,1.2,2.4,1.9,3.5,3.1c-1.7-1.1-2.9-1.6-6.1-2.6c4.3,6.1,4.1,9.1,6.1,14.5c-5.7,0.6-10.9,1.2-21.4,2.2
				c-0.9-8.1-1-12.3-2.8-20.6c-5.4-0.8-9.6-1.4-14.2-1.9c-0.1-2.4-0.2-3.6-0.3-6C218.7,69.4,231.4,71.4,241.9,78.2z"/>
		</g>
		<path d="M248.8,94.1c-5.6,1.3-26.8,7.6-42.6,8.6c-15.9,1-182-1.3-196.8-6.9c-2,5.6-2,11.6,0,12.9c8.9,1.7,139.4,4,174.4,3.6
			c34.7-0.3,49.2-3,66.7-11.2C250.5,98.1,248.8,94.1,248.8,94.1z"/>
		<path class="st0" d="M28.5,24.7c5.6,4,23.1,17.2,31.4,16.5c14.9,1.7,29.7-19.5,36.7-20.5"/>
		<g>
			<path d="M130.3,12.7c-2.6-1.7-19.2-9.9-21.6-10.1c-4.3,4.8-6.9,16.2-3.5,20.8c3.6-1.2,15.4-2.8,17-0.7
				C123.2,19,130.3,12.7,130.3,12.7z"/>
			<path d="M126.3,25.4c0.5,1.5,4,4.3,5.1,6.1c3.3-4.3,8.4-11.1,9.7-11.7c-0.7-2.8-4.8-5-6.6-4.8C132.1,18.5,126.3,25.4,126.3,25.4z
				"/>
			<path d="M134.4,34.8c2.1,1.7,4.8,4.1,6.6,4.8c4.5-4.3,10.2-10.9,10.6-12.1c-0.5-2.5-5-5.3-6.4-5
				C143.3,25.7,134.4,34.8,134.4,34.8z"/>
			<path d="M144.8,42.7c2.3,1.7,4.1,4.5,6.9,4.6c1.8-2.3,7.3-8.6,9.1-10.7c-0.8-3-5-4.6-6.6-5.3C153.1,33.3,144.8,42.7,144.8,42.7z"
				/>
			<path d="M156,49.5c1.3,2,7.6,4.6,8.3,4.8c1.3-2,6.9-8.8,7.3-9.4c-1.3-3.3-2-4.6-6.8-5.6C161.5,44.2,156,49.5,156,49.5z"/>
			<path d="M170.6,54.7c2.1,0.7,5,2.1,6.4,2.5c3-3.1,6.6-6.1,7.1-7.1c-1.8-2.8-4-3.5-7.8-3.6C174.1,50.1,170.6,54.7,170.6,54.7z"/>
			<path d="M182.1,57.6c2.6,0.7,11.6,1.8,16,3.3c-3.1-3.6-8.4-7.6-8.8-9.1C187.1,53.3,182.1,57.6,182.1,57.6z"/>
		</g>
	</g>
	<text transform="matrix(1 0 0 1 13.4948 146.9022)"><tspan x="0" y="0" class="st1 st2 st3">shoe </tspan><tspan x="112.4" y="0" class="st4 st2 st3">martz</tspan></text>
</g>
</svg>
